<svg xmlns="http://www.w3.org/2000/svg" width="512" height="512" viewBox="0 0 512 512">
  <defs>
    <linearGradient id="bg" x1="0" y1="0" x2="1" y2="1">
      <stop offset="0" stop-color="#1a1226"/>
      <stop offset="1" stop-color="#0b0a10"/>
    </linearGradient>
    <linearGradient id="pink" x1="0" y1="0" x2="1" y2="1">
      <stop offset="0" stop-color="#ff1f66"/>
      <stop offset="1" stop-color="#ff6b8b"/>
    </linearGradient>
    <radialGradient id="glow" cx="0.5" cy="0.32" r="0.6">
      <stop offset="0" stop-color="#ff1f66" stop-opacity="0.42"/>
      <stop offset="1" stop-color="#ff1f66" stop-opacity="0"/>
    </radialGradient>
  </defs>
  <rect width="512" height="512" rx="112" fill="url(#bg)"/>
  <rect width="512" height="512" rx="112" fill="url(#glow)"/>
  <!-- 초승달 -->
  <path d="M300 120a128 128 0 1 0 0 232 150 150 0 0 1 0-232z" fill="url(#pink)"/>
  <!-- 별 -->
  <path d="M364 150l11 30 30 11-30 11-11 30-11-30-30-11 30-11z" fill="#ffcf5c"/>
  <!-- 운명의 다리(bridge) 아치 -->
  <path d="M96 392c64-72 256-72 320 0" fill="none" stroke="url(#pink)" stroke-width="18" stroke-linecap="round"/>
  <circle cx="96" cy="392" r="14" fill="#ff6b8b"/>
  <circle cx="416" cy="392" r="14" fill="#ff6b8b"/>
</svg>
